<svg fill="none" xmlns="http://www.w3.org/2000/svg" viewBox="0 0 330 193"><path fill-rule="evenodd" clip-rule="evenodd" d="M28.142 93.85l10.3-38.443L0 65.707 28.142 93.85zm-2.586-9.65l5.822-21.729L9.65 68.293 25.556 84.2z" fill="url(#paint0_linear)"/><path fill-rule="evenodd" clip-rule="evenodd" d="M293.93 59.808l3.469 39.648L330 76.628l-36.07-16.82zm5.731 8.184l1.96 22.41 18.427-12.903-20.387-9.507z" fill="url(#paint1_linear)"/><path d="M165.454 0l9.184 15.908h-18.369L165.454 0z" fill="url(#paint2_linear)"/><path d="M295.367 166.576l-4.754 17.743-12.989-12.989 17.743-4.754z" fill="url(#paint3_linear)"/><path d="M40.982 175.468l11.766 6.793-11.766 6.793v-13.586z" fill="url(#paint4_linear)"/><defs><linearGradient id="paint0_linear" x1="28.142" y1="93.849" x2="16.248" y2="49.46" gradientUnits="userSpaceOnUse"><stop stop-color="#FF455B"/><stop offset="1" stop-color="#FF7245"/></linearGradient><linearGradient id="paint1_linear" x1="293.93" y1="59.808" x2="320.289" y2="97.453" gradientUnits="userSpaceOnUse"><stop stop-color="#FF455B"/><stop offset="1" stop-color="#FF7245"/></linearGradient><linearGradient id="paint2_linear" x1="165.454" y1="0" x2="165.454" y2="28.28" gradientUnits="userSpaceOnUse"><stop stop-color="#FF455B"/><stop offset="1" stop-color="#FF7245"/></linearGradient><linearGradient id="paint3_linear" x1="295.367" y1="166.576" x2="275.37" y2="186.573" gradientUnits="userSpaceOnUse"><stop stop-color="#FF455B"/><stop offset="1" stop-color="#FF7245"/></linearGradient><linearGradient id="paint4_linear" x1="40.982" y1="175.468" x2="51.441" y2="193.582" gradientUnits="userSpaceOnUse"><stop stop-color="#FF455B"/><stop offset="1" stop-color="#FF7245"/></linearGradient></defs></svg>