<svg fill="none" xmlns="http://www.w3.org/2000/svg" viewBox="0 0 50 50"><g opacity=".5" clip-path="url(#clip0)" fill="#fff"><path d="M46.719 25.006c1.052-2.097 1.88-4.206 2.455-6.283 1.803-6.51.93-11.96-2.458-15.348C43.328-.012 37.878-.885 31.368.917c-2.077.575-4.186 1.403-6.283 2.455-2.61-1.31-5.222-2.268-7.74-2.82C11.497-.729 6.568.273 3.466 3.375 1.476 5.366.321 8.163.128 11.465c-.174 2.97.428 6.379 1.74 9.89a4.64 4.64 0 000 7.29c-1.312 3.511-1.914 6.92-1.74 9.89.193 3.302 1.347 6.099 3.338 8.09 2.224 2.223 5.343 3.37 9.11 3.37.757 0 1.54-.046 2.347-.14 3.23-.372 6.683-1.473 10.167-3.225 2.096 1.051 4.203 1.878 6.278 2.453 2.215.613 4.308.917 6.239.917 3.742 0 6.874-1.14 9.109-3.375 3.102-3.102 4.105-8.03 2.823-13.88-.552-2.516-1.51-5.13-2.82-7.739zM31.759 2.331c5.979-1.655 10.922-.916 13.92 2.082 2.997 2.997 3.736 7.94 2.081 13.918a32.546 32.546 0 01-1.892 5.069c-1.42-2.545-3.164-5.066-5.187-7.472.62-.79.99-1.783.99-2.862a4.6 4.6 0 00-.976-2.851l-1.158.9c.437.563.668 1.237.668 1.95a3.183 3.183 0 01-3.18 3.18 3.183 3.183 0 01-3.179-3.18 3.183 3.183 0 014.801-2.734l.75-1.262a4.644 4.644 0 00-5.234.34c-2.405-2.021-4.927-3.767-7.472-5.186A32.573 32.573 0 0131.76 2.33zM4.505 4.413C8.47.446 15.744.593 23.484 4.219 19.707 6.326 16 9.148 12.62 12.529c-2.507 2.506-4.713 5.2-6.567 8.01a4.687 4.687 0 00-2.889.092C.621 13.702 1.097 7.819 4.503 4.413zm8.11 44.11c-3.318 0-6.14-.966-8.11-2.936C1.097 42.181.62 36.298 3.163 29.37a4.624 4.624 0 002.888.09c1.853 2.811 4.06 5.505 6.568 8.013 3.38 3.38 7.085 6.2 10.862 8.307-3.88 1.816-7.612 2.744-10.866 2.743zm12.473-3.542c-3.963-2.082-7.877-4.994-11.43-8.547a49.949 49.949 0 01-6.27-7.615 4.644 4.644 0 001.986-4.232l-1.462.129a3.183 3.183 0 01-3.167 3.463A3.183 3.183 0 011.565 25a3.183 3.183 0 013.18-3.18c1.21 0 2.3.674 2.843 1.757l1.312-.658a4.65 4.65 0 00-1.51-1.743 49.975 49.975 0 016.267-7.61c3.554-3.554 7.47-6.467 11.433-8.549 2.698 1.42 5.428 3.251 8.073 5.469a4.618 4.618 0 00-.784 2.58 4.652 4.652 0 004.646 4.646c.954 0 1.842-.29 2.58-.784 2.218 2.645 4.048 5.375 5.469 8.072-2.082 3.965-4.995 7.88-8.549 11.434-.39.39-.792.78-1.198 1.16a4.626 4.626 0 00-2.997-1.1c-1.043 0-2.03.338-2.85.977l.9 1.158a3.15 3.15 0 011.95-.668 3.183 3.183 0 013.179 3.18 3.183 3.183 0 01-3.18 3.179 3.183 3.183 0 01-2.734-4.801l-1.261-.75a4.644 4.644 0 00-.172 4.423 42.592 42.592 0 01-3.075 1.79zm20.591.606c-2.997 2.998-7.94 3.737-13.918 2.082a32.562 32.562 0 01-5.065-1.89 45.068 45.068 0 002.317-1.39 4.633 4.633 0 003.318 1.398 4.652 4.652 0 004.647-4.646c0-.892-.254-1.726-.691-2.435.432-.405.86-.818 1.276-1.234 3.382-3.382 6.203-7.088 8.31-10.866 3.625 7.74 3.773 15.014-.194 18.981z"/><path d="M37.123 32.581h-1.516v-3.697c0-1.634-1.099-3.086-2.672-3.53l-.55-.155-.397 1.412.548.155a2.209 2.209 0 011.603 2.119v3.696H31.5v-2.005H30.03v2.005h-6.603v1.467h13.695v-1.467z"/><path d="M27.518 25.35l3.057.863.4-1.412-2.998-.845v-1.949a5.134 5.134 0 002.25-4.246V15.61a5.142 5.142 0 00-5.136-5.136 5.142 5.142 0 00-5.136 5.136v2.152c0 1.763.893 3.32 2.25 4.246v1.949l-4.957 1.398a3.682 3.682 0 00-2.673 3.53v3.697h-1.516v1.467h8.902v-1.467h-1.81v-2.005h-1.467v2.005h-2.641v-3.697c0-.98.66-1.852 1.603-2.118l5.018-1.415a3.278 3.278 0 002.427 1.068c.936 0 1.809-.392 2.427-1.068zM25.09 11.94a3.673 3.673 0 013.668 3.67v.817l-1.542-2.04h-5.584a3.674 3.674 0 013.458-2.446zm-3.668 5.821v-1.907h5.064l2.15 2.844a3.674 3.674 0 01-3.546 2.732 3.673 3.673 0 01-3.668-3.669zm2.25 6.513v-1.578a5.108 5.108 0 002.836 0v1.578a1.817 1.817 0 01-1.418.677c-.557 0-1.074-.25-1.418-.677z"/><path d="M28.966 28.808l-2.067-.583.399-1.412 2.067.583-.399 1.412zM32.187 28.19l-.398 1.412-1.413-.398.4-1.412 1.411.398zM36.292 12.332h1.467V13.8h-1.467v-1.468zM31.596 40.407h1.468v1.467h-1.468v-1.467zM4.01 24.267h1.468v1.467H4.011v-1.468z"/></g><defs><clipPath id="clip0"><path fill="#fff" d="M0 0h50v50H0z"/></clipPath></defs></svg>