<svg fill="none" xmlns="http://www.w3.org/2000/svg" viewBox="0 0 50 50"><g opacity=".5" clip-path="url(#clip0)" fill="#fff"><path d="M11.503 25.42c-4.531 0-8.218 3.686-8.218 8.218 0 4.582 3.682 8.357 8.209 8.414l.109.001a8.25 8.25 0 005.877-2.438 8.253 8.253 0 002.438-5.987c-.058-4.526-3.833-8.208-8.415-8.208zm4.941 13.159a6.786 6.786 0 01-4.932 2.009c-3.729-.048-6.762-3.166-6.762-6.95a6.76 6.76 0 016.753-6.753c3.785 0 6.902 3.033 6.95 6.762a6.798 6.798 0 01-2.009 4.932z"/><path d="M49.268 22.135h-1.624L39.587 6.24a2.867 2.867 0 00-2.57-1.578H30.72a2.2 2.2 0 00-2.198 2.197 2.2 2.2 0 002.198 2.198h5.368l6.63 13.078h-4.32c-4.67 0-8.704 2.774-10.542 6.761a3.592 3.592 0 00-5.716-.009c-1.84-3.982-5.871-6.752-10.538-6.752h-4.33l3.421-6.75a.732.732 0 10-1.306-.663l-3.758 7.413H3.987l7.72-15.232a1.41 1.41 0 011.264-.776h6.298a.733.733 0 010 1.465H13.45a.732.732 0 00-.654.4l-1.968 3.883a.732.732 0 101.307.662l1.765-3.48h5.368a2.2 2.2 0 002.197-2.198 2.2 2.2 0 00-2.197-2.197H12.97A2.867 2.867 0 0010.4 6.24L2.344 22.135H.732a.732.732 0 00-.732.732v10.87c0 6.396 5.204 11.6 11.602 11.6 6.397 0 11.601-5.204 11.601-11.6 0-.958-.117-1.888-.337-2.779a2.134 2.134 0 012.128-2.019c1.152 0 2.092.918 2.13 2.06a11.59 11.59 0 002.554 10.39 11.593 11.593 0 007.119 3.84.733.733 0 00.2-1.451c-4.98-.69-8.735-5.006-8.735-10.042 0-5.59 4.547-10.136 10.136-10.136h10.137v10.136c0 5.029-3.6 9.24-8.559 10.015a.732.732 0 10.226 1.447A11.603 11.603 0 0050 33.736V22.867a.732.732 0 00-.732-.732zM11.602 43.873c-5.59 0-10.137-4.547-10.137-10.137V23.6h10.137c4.694 0 8.652 3.207 9.8 7.546a.73.73 0 00.051.203c.186.766.285 1.565.285 2.387 0 5.59-4.547 10.137-10.136 10.137zm25.59-35.88a.732.732 0 00-.654-.401H30.72a.733.733 0 010-1.465h6.298c.536 0 1.02.297 1.263.776l7.721 15.232H44.36L37.19 7.993z"/><path d="M46.715 33.638c0-4.532-3.687-8.218-8.218-8.218-4.582 0-8.357 3.682-8.415 8.208a8.252 8.252 0 002.438 5.987 8.25 8.25 0 005.986 2.437c4.527-.057 8.209-3.832 8.209-8.414zm-8.228 6.95a6.8 6.8 0 01-4.931-2.01 6.8 6.8 0 01-2.009-4.931c.048-3.729 3.165-6.762 6.95-6.762a6.76 6.76 0 016.753 6.753c0 3.784-3.034 6.902-6.763 6.95z"/></g><defs><clipPath id="clip0"><path fill="#fff" d="M0 0h50v50H0z"/></clipPath></defs></svg>