<svg fill="none" xmlns="http://www.w3.org/2000/svg" viewBox="0 0 50 50"><g opacity=".5" clip-path="url(#clip0)"><path d="M35.398 3.97A15.495 15.495 0 0029.87.777a15.65 15.65 0 00-6.668-.674c-7.06.79-12.816 6.477-13.685 13.522-.648 5.248 1.347 10.42 5.336 13.837 1.506 1.29 2.37 3.241 2.37 5.354v.797c0 1.01.656 1.87 1.565 2.177v7.216a3.086 3.086 0 002.468 3.02l.425 2.128A2.304 2.304 0 0023.934 50h2.13c1.092 0 2.04-.777 2.253-1.847l.426-2.128a3.086 3.086 0 002.468-3.02V35.79a2.301 2.301 0 001.566-2.177v-.862c0-2.033.924-4.014 2.536-5.434a15.614 15.614 0 005.292-11.71 15.63 15.63 0 00-5.206-11.635zm-8.517 43.896a.836.836 0 01-.817.67h-2.13a.835.835 0 01-.817-.67l-.356-1.78h4.476l-.356 1.78zm2.865-10.24l-.885.064a.732.732 0 00.104 1.46l.781-.055v1.663l-.886.063a.733.733 0 00.105 1.461l.781-.056v.78c0 .89-.725 1.615-1.616 1.615h-6.257-.006a1.618 1.618 0 01-1.616-1.616v-.1l5.583-.4a.732.732 0 00-.104-1.46l-5.479.391v-1.663l5.582-.399a.732.732 0 10-.104-1.46l-5.478.39V35.91h9.495v1.717zm-5.65-17.373h.17v3.182a.732.732 0 001.465 0v-3.182h.17a1.51 1.51 0 001.495-1.266l.572-3.433.16.002c.956 0 1.476-.26 1.894-.468.205-.103.379-.19.6-.246l-3.675 9.187a4.627 4.627 0 00-.332 1.725v.03c0 .89-.725 1.615-1.616 1.615a1.618 1.618 0 01-1.616-1.616v-.029c0-.593-.112-1.174-.332-1.725l-3.675-9.186c.22.056.392.142.597.245.417.208.937.468 1.892.468.056 0 .111 0 .165-.002l.572 3.433a1.51 1.51 0 001.494 1.266zm-.635-5.023c.105-.048.203-.096.296-.143.364-.182.627-.313 1.236-.313.611 0 .875.131 1.24.314.095.047.195.097.303.146l-.585 3.512a.05.05 0 01-.05.042h-1.805a.05.05 0 01-.05-.042l-.585-3.516zm3.154 13.175v6.04h-3.232v-6.04a3.062 3.062 0 003.232 0zm7.73-2.188c-1.928 1.698-3.033 4.08-3.033 6.533v.862c0 .459-.374.833-.834.833H28.08v-8.69c0-.407.077-.805.228-1.182l4.417-11.043a.732.732 0 10-1.36-.544l-.13.323c-.938.005-1.453.261-1.867.468-.365.183-.63.315-1.24.315s-.875-.132-1.24-.315c-.418-.208-.938-.468-1.894-.468-.955 0-1.475.26-1.892.469-.364.182-.628.314-1.237.314-.609 0-.872-.132-1.236-.314-.414-.207-.928-.464-1.866-.469l-.129-.323a.732.732 0 10-1.36.544l4.417 11.043c.15.377.227.775.227 1.181v8.691H19.52a.834.834 0 01-.834-.833v-.797c0-2.541-1.05-4.898-2.88-6.466-3.616-3.096-5.424-7.786-4.836-12.545.787-6.38 6-11.53 12.395-12.246a14.878 14.878 0 011.654-.093 13.98 13.98 0 019.404 3.598 14.163 14.163 0 014.718 10.544c0 4.057-1.748 7.925-4.796 10.61z" fill="#fff"/></g><defs><clipPath id="clip0"><path fill="#fff" d="M0 0h50v50H0z"/></clipPath></defs></svg>