<svg fill="none" xmlns="http://www.w3.org/2000/svg" viewBox="0 0 359 450">
<g filter="url(#filter0_d)">
<path d="M164.948 281.444c10.495-16.558 8.106-37.693 18.663-54.131 17.271-26.893 39.476 1.583 57.855-22.985 16.645-22.249 10.067-59.404 27.085-80.78 24.051-30.21 54.7 34.024 75.944-1.999C353.799 105.775 357.411 88.461 360 70v380H0c.376-2.715.787-5.433 1.24-8.161 7.83-47.17 55.4-43.396 85.61-84.861 12.605-17.301 16.922-33.17 30.627-47.719 16.699-17.727 32.978-4.952 47.471-27.815z" fill="#0D0F16"/>
</g>
<defs>
<filter id="filter0_d" x="-70" y="0" width="460" height="480" filterUnits="userSpaceOnUse" color-interpolation-filters="sRGB">
<feFlood flood-opacity="0" result="BackgroundImageFix"/>
<feColorMatrix in="SourceAlpha" values="0 0 0 0 0 0 0 0 0 0 0 0 0 0 0 0 0 0 127 0" result="hardAlpha"/>
<feOffset dx="-20" dy="-20"/>
<feGaussianBlur stdDeviation="25"/>
<feColorMatrix values="0 0 0 0 0 0 0 0 0 0 0 0 0 0 0 0 0 0 0.2 0"/>
<feBlend in2="BackgroundImageFix" result="effect1_dropShadow"/>
<feBlend in="SourceGraphic" in2="effect1_dropShadow" result="shape"/>
</filter>
</defs>
</svg>
