<svg viewBox="0 0 79 126" fill="none" xmlns="http://www.w3.org/2000/svg">
<path fill-rule="evenodd" clip-rule="evenodd" d="M35.571 114.68L21.0714 110.795L24.9565 125.294L35.571 114.68ZM31.9313 115.655L23.7358 113.459L25.9318 121.655L31.9313 115.655Z" fill="url(#paint0_linear)"/>
<path fill-rule="evenodd" clip-rule="evenodd" d="M22.7321 14.4312L37.6861 13.1229L29.0761 0.826479L22.7321 14.4312ZM25.8188 12.2699L34.271 11.5304L29.4045 4.58025L25.8188 12.2699Z" fill="url(#paint1_linear)"/>
<path d="M0.173584 56.417L6.17358 52.9529L6.17358 59.8811L0.173584 56.417Z" fill="url(#paint2_linear)"/>
<path d="M63.002 3.93183L69.6941 5.72498L64.7952 10.624L63.002 3.93183Z" fill="url(#paint3_linear)"/>
<path d="M69.3663 105.76L72.8304 99.76L76.2945 105.76L69.3663 105.76Z" fill="url(#paint4_linear)"/>
<g opacity="0.5">
<path d="M40.1817 68.8192C40.782 69.4195 41.3976 69.9995 42.0274 70.5589C42.5871 71.0559 43.1581 71.5366 43.7396 72.0005C48.504 75.8009 53.9786 78.4754 59.7967 79.8181C62.9986 80.5573 66.2216 79.0027 67.6676 76.1114L68.5919 74.2623C69.4992 72.4484 68.8474 70.2093 67.1076 69.1653L61.2198 65.6331C59.3685 64.522 56.9711 65.1207 55.8608 66.9729L54.8379 68.6764C54.6395 69.0069 54.2357 69.143 53.8775 68.9995C47.7632 66.5542 42.4461 61.2373 40.001 55.1237C39.8576 54.7657 39.9937 54.362 40.3245 54.1636C42.6582 52.7622 41.8534 53.2453 42.0274 53.141C43.8792 52.0307 44.4792 49.6335 43.3677 47.782L39.8353 41.8939C38.7913 40.1541 36.5525 39.5019 34.7385 40.4095L32.8888 41.3339C29.9735 42.7918 28.4494 46.0285 29.1824 49.2048C30.8731 56.5318 34.6769 63.3144 40.1817 68.8192ZM60.4156 66.9729L66.3034 70.505C67.3474 71.1315 67.7387 72.4749 67.1939 73.5635L66.7838 74.3844L56.8227 68.406L57.2006 67.7764C57.8668 66.6655 59.3045 66.306 60.4156 66.9729ZM33.5877 42.7313L35.4374 41.8069C36.5348 41.2579 37.8742 41.6629 38.4953 42.6978L42.0277 48.5859C42.6942 49.6961 42.3356 51.1341 41.2233 51.8009L40.5928 52.1796L37.0554 46.2809C36.8336 45.911 36.3538 45.7907 35.9836 46.0129C35.6138 46.2348 35.4935 46.7145 35.7154 47.0847L39.2637 53.0015C38.4611 53.6387 38.1596 54.7282 38.5502 55.7038C39.8188 58.8762 41.8653 61.9289 44.4688 64.532C47.072 67.1349 50.125 69.1814 53.297 70.4504C54.2739 70.841 55.3643 70.5389 56.0009 69.7353L66.069 75.7776C64.8572 77.8049 62.482 78.8336 60.148 78.2956C54.5356 77.0004 49.3043 74.393 44.8192 70.8385C44.2755 70.4077 43.7428 69.9629 43.2217 69.5048C42.5102 68.8794 41.8203 68.2292 41.1538 67.556C36.0686 62.4196 32.3405 55.9403 30.705 48.8535C30.1349 46.3831 31.3205 43.8654 33.5877 42.7313Z" fill="white"/>
</g>
<defs>
<linearGradient id="paint0_linear" x1="35.571" y1="114.68" x2="18.8283" y2="119.166" gradientUnits="userSpaceOnUse">
<stop stop-color="#FF455B"/>
<stop offset="1" stop-color="#FF7245"/>
</linearGradient>
<linearGradient id="paint1_linear" x1="22.7321" y1="14.4312" x2="36.9307" y2="4.48917" gradientUnits="userSpaceOnUse">
<stop stop-color="#FF455B"/>
<stop offset="1" stop-color="#FF7245"/>
</linearGradient>
<linearGradient id="paint2_linear" x1="0.173584" y1="56.417" x2="10.8403" y2="56.417" gradientUnits="userSpaceOnUse">
<stop stop-color="#FF455B"/>
<stop offset="1" stop-color="#FF7245"/>
</linearGradient>
<linearGradient id="paint3_linear" x1="63.002" y1="3.93183" x2="70.5445" y2="11.4743" gradientUnits="userSpaceOnUse">
<stop stop-color="#FF455B"/>
<stop offset="1" stop-color="#FF7245"/>
</linearGradient>
<linearGradient id="paint4_linear" x1="69.3663" y1="105.76" x2="78.6039" y2="100.427" gradientUnits="userSpaceOnUse">
<stop stop-color="#FF455B"/>
<stop offset="1" stop-color="#FF7245"/>
</linearGradient>
</defs>
</svg>
