<svg fill="none" xmlns="http://www.w3.org/2000/svg" viewBox="0 0 79 126"><path fill-rule="evenodd" clip-rule="evenodd" d="M35.571 114.68l-14.5-3.885 3.885 14.499 10.615-10.614zm-3.64.975l-8.195-2.196 2.196 8.196 6-6z" fill="url(#paint0_linear)"/><path fill-rule="evenodd" clip-rule="evenodd" d="M22.732 14.431l14.954-1.308L29.076.826l-6.344 13.605zm3.087-2.161l8.452-.74-4.867-6.95-3.585 7.69z" fill="url(#paint1_linear)"/><path d="M.174 56.417l6-3.464v6.928l-6-3.464z" fill="url(#paint2_linear)"/><path d="M63.002 3.932l6.692 1.793-4.899 4.899-1.793-6.692z" fill="url(#paint3_linear)"/><path d="M69.366 105.76l3.464-6 3.465 6h-6.929z" fill="url(#paint4_linear)"/><path d="M40.182 68.82A42.9 42.9 0 0043.74 72c4.764 3.8 10.239 6.475 16.057 7.818a7.013 7.013 0 007.87-3.707l.925-1.849a3.925 3.925 0 00-1.484-5.097l-5.888-3.532a3.903 3.903 0 00-5.36 1.34l-1.022 1.703a.778.778 0 01-.96.323C47.762 66.555 42.445 61.237 40 55.124a.778.778 0 01.324-.96l1.702-1.023a3.903 3.903 0 001.34-5.359l-3.532-5.888a3.924 3.924 0 00-5.096-1.484l-1.85.924a7.012 7.012 0 00-3.707 7.87c1.691 7.328 5.495 14.11 11 19.615zm20.234-1.847l5.887 3.532a2.354 2.354 0 01.89 3.059l-.41.82-9.96-5.978.378-.63a2.341 2.341 0 013.215-.803zM33.588 42.73l1.85-.924a2.355 2.355 0 013.057.89l3.533 5.889a2.34 2.34 0 01-.805 3.215l-.63.379-3.538-5.9a.781.781 0 10-1.34.805L39.264 53a2.332 2.332 0 00-.714 2.703c1.269 3.172 3.315 6.225 5.919 8.828 2.603 2.603 5.656 4.65 8.828 5.918.977.391 2.067.089 2.704-.715l10.068 6.043a5.454 5.454 0 01-5.921 2.518C54.536 77 49.304 74.393 44.819 70.838a40.74 40.74 0 01-3.665-3.282C36.069 62.42 32.34 55.94 30.705 48.853a5.455 5.455 0 012.883-6.122z" fill="#fff" opacity=".5"/><defs><linearGradient id="paint0_linear" x1="35.571" y1="114.68" x2="18.828" y2="119.166" gradientUnits="userSpaceOnUse"><stop stop-color="#FF455B"/><stop offset="1" stop-color="#FF7245"/></linearGradient><linearGradient id="paint1_linear" x1="22.732" y1="14.431" x2="36.931" y2="4.489" gradientUnits="userSpaceOnUse"><stop stop-color="#FF455B"/><stop offset="1" stop-color="#FF7245"/></linearGradient><linearGradient id="paint2_linear" x1=".174" y1="56.417" x2="10.84" y2="56.417" gradientUnits="userSpaceOnUse"><stop stop-color="#FF455B"/><stop offset="1" stop-color="#FF7245"/></linearGradient><linearGradient id="paint3_linear" x1="63.002" y1="3.932" x2="70.544" y2="11.474" gradientUnits="userSpaceOnUse"><stop stop-color="#FF455B"/><stop offset="1" stop-color="#FF7245"/></linearGradient><linearGradient id="paint4_linear" x1="69.366" y1="105.76" x2="78.604" y2="100.427" gradientUnits="userSpaceOnUse"><stop stop-color="#FF455B"/><stop offset="1" stop-color="#FF7245"/></linearGradient></defs></svg>