<svg fill="none" xmlns="http://www.w3.org/2000/svg" viewBox="0 0 50 50"><g opacity=".5" clip-path="url(#clip0)"><path d="M49.994 37.514c-.115-3.016-1.547-4.8-3.93-4.894a5.071 5.071 0 00-3.536 1.235 3.186 3.186 0 01-.533.373v-2.302a.733.733 0 00-1.466 0v3.02c0 .313.15.61.4.796a.995.995 0 00.877.15 4.613 4.613 0 001.68-.927 3.62 3.62 0 012.52-.88c1.588.063 2.437 1.236 2.522 3.485.052 1.348-.26 2.445-.878 3.086-.438.455-1.041.686-1.793.686-.881 0-1.731-.32-2.393-.902a4.412 4.412 0 00-1.664-.915.996.996 0 00-.874.155.994.994 0 00-.398.793v7.237a.629.629 0 01-.628.628h-4.626c.104-.194.23-.374.373-.537a5.09 5.09 0 001.267-3.362c0-1.149-.393-2.134-1.135-2.85-.931-.896-2.407-1.353-4.16-1.286-3.015.114-4.799 1.547-4.894 3.93a5.081 5.081 0 001.236 3.536c.152.175.283.366.392.57h-5.188a.63.63 0 01-.628-.629v-7.24a.992.992 0 00-1.271-.948 4.607 4.607 0 00-1.714.938 3.625 3.625 0 01-2.519.879c-1.588-.063-2.436-1.235-2.522-3.484-.051-1.35.26-2.445.878-3.087.438-.455 1.041-.685 1.793-.685.882 0 1.731.32 2.393.902a4.403 4.403 0 001.697.924.994.994 0 00.87-.16.994.994 0 00.395-.79v-7.245a.63.63 0 01.628-.628h5.889c.312 0 .608-.15.794-.4A.993.993 0 0030 25.81a4.614 4.614 0 00-.93-1.687 3.619 3.619 0 01-.879-2.519c.063-1.588 1.235-2.437 3.484-2.522 1.348-.051 2.445.26 3.086.878.456.438.686 1.04.686 1.792 0 .882-.32 1.732-.902 2.394a4.407 4.407 0 00-.916 1.671.994.994 0 00.156.873.993.993 0 00.792.397H39.9c.347 0 .629.282.629.628v.741a.734.734 0 101.466 0v-.74c0-1.156-.94-2.096-2.095-2.096h-4.61c.101-.181.22-.35.357-.506a5.09 5.09 0 001.267-3.361c0-1.15-.393-2.135-1.135-2.85-.931-.896-2.407-1.354-4.16-1.287-3.015.115-4.799 1.547-4.894 3.93-.007.187-.003.373.01.558h-.053c-1.588-.064-2.437-1.236-2.522-3.485-.052-1.349.26-2.445.878-3.086.438-.455 1.04-.686 1.792-.686.882 0 1.732.32 2.394.902a4.38 4.38 0 001.265.775c.384.155.82.11 1.163-.123.34-.23.544-.614.544-1.026v-4.981c0-1.155-.94-2.095-2.095-2.095H23.58c.1-.18.218-.347.353-.5A5.088 5.088 0 0025.2 4.435c0-1.15-.393-2.135-1.136-2.85C23.134.69 21.657.234 19.905.3c-3.015.115-4.8 1.547-4.894 3.93a5.08 5.08 0 001.236 3.536c.143.166.267.344.372.533h-6.514c-1.155 0-2.094.94-2.094 2.095v4.61c-.182-.101-.351-.22-.507-.357a5.088 5.088 0 00-3.361-1.267c-1.15 0-2.135.393-2.85 1.135-.896.932-1.353 2.409-1.286 4.16.114 3.015 1.546 4.799 3.929 4.894a5.078 5.078 0 003.536-1.236c.168-.144.348-.27.539-.376v5.172c0 1.155.94 2.095 2.094 2.095h6.536c-.05.093-.106.184-.166.27a.733.733 0 101.204.837 4.48 4.48 0 00.62-1.309.994.994 0 00-.158-.87.994.994 0 00-.791-.395h-7.245a.629.629 0 01-.628-.628V21.24a.993.993 0 00-.4-.794.994.994 0 00-.876-.152 4.615 4.615 0 00-1.688.93 3.617 3.617 0 01-2.519.879c-1.588-.063-2.436-1.235-2.522-3.484-.051-1.349.26-2.445.878-3.086.438-.456 1.041-.686 1.793-.686.881 0 1.731.32 2.393.902.48.422 1.042.73 1.671.917.298.088.624.03.873-.156a.994.994 0 00.397-.793v-5.323c0-.347.282-.628.628-.628h7.233a.992.992 0 00.946-1.278 4.61 4.61 0 00-.928-1.68 3.617 3.617 0 01-.88-2.52c.064-1.588 1.236-2.436 3.485-2.522 1.349-.05 2.445.26 3.086.878.455.438.686 1.041.686 1.793 0 .881-.32 1.731-.902 2.393a4.4 4.4 0 00-.915 1.664.993.993 0 00.155.874c.186.249.483.398.793.398h7.237c.347 0 .628.281.628.628v4.626a2.874 2.874 0 01-.537-.373 5.09 5.09 0 00-3.362-1.267c-1.149 0-2.134.393-2.849 1.135-.897.932-1.354 2.409-1.287 4.16.114 3.015 1.547 4.799 3.93 4.894.144.005.288.003.431-.003.21.549.513 1.062.906 1.516.144.167.27.347.376.538h-5.172c-1.155 0-2.095.94-2.095 2.095v6.536a2.883 2.883 0 01-.526-.367 5.087 5.087 0 00-3.362-1.267c-1.15 0-2.134.392-2.85 1.135-.896.931-1.353 2.408-1.287 4.16.115 3.015 1.547 4.798 3.93 4.893a5.074 5.074 0 003.537-1.235c.173-.15.36-.28.558-.387v6.528c0 1.155.94 2.095 2.095 2.095h5.544c.414 0 .798-.205 1.028-.548.232-.344.276-.78.118-1.167a4.627 4.627 0 00-.785-1.281 3.617 3.617 0 01-.879-2.519c.063-1.588 1.235-2.436 3.484-2.522 1.348-.052 2.445.26 3.086.878.455.438.686 1.041.686 1.793 0 .882-.32 1.731-.902 2.393a4.38 4.38 0 00-.775 1.265c-.155.386-.11.82.123 1.163.23.341.614.545 1.026.545H39.9c1.155 0 2.095-.94 2.095-2.095v-6.522c.18.1.347.218.5.353a5.089 5.089 0 003.362 1.267c1.15 0 2.135-.393 2.85-1.135.896-.931 1.353-2.408 1.287-4.16z" fill="#fff"/></g><defs><clipPath id="clip0"><path fill="#fff" d="M0 0h50v50H0z"/></clipPath></defs></svg>