<svg fill="none" xmlns="http://www.w3.org/2000/svg" viewBox="0 0 199 27"><path fill-rule="evenodd" clip-rule="evenodd" d="M53.75 22.943l3.885-14.5-14.5 3.885L53.75 22.943zm-.975-3.64l2.196-8.196-8.195 2.196 5.999 6z" fill="url(#paint0_linear)"/><path fill-rule="evenodd" clip-rule="evenodd" d="M141.148 11.695l1.308 14.954 12.297-8.61-13.605-6.344zm2.161 3.087l.74 8.452 6.95-4.867-7.69-3.585z" fill="url(#paint1_linear)"/><path d="M98 0l3.464 6h-6.928L98 0z" fill="url(#paint2_linear)"/><path d="M195.828 5.828l-1.793 6.693-4.899-4.9 6.692-1.793z" fill="url(#paint3_linear)"/><path d="M3.534 16l6 3.464-6 3.464V16z" fill="url(#paint4_linear)"/><defs><linearGradient id="paint0_linear" x1="53.75" y1="22.943" x2="49.264" y2="6.2" gradientUnits="userSpaceOnUse"><stop stop-color="#FF455B"/><stop offset="1" stop-color="#FF7245"/></linearGradient><linearGradient id="paint1_linear" x1="141.148" y1="11.695" x2="151.09" y2="25.894" gradientUnits="userSpaceOnUse"><stop stop-color="#FF455B"/><stop offset="1" stop-color="#FF7245"/></linearGradient><linearGradient id="paint2_linear" x1="98" y1="0" x2="98" y2="10.667" gradientUnits="userSpaceOnUse"><stop stop-color="#FF455B"/><stop offset="1" stop-color="#FF7245"/></linearGradient><linearGradient id="paint3_linear" x1="195.828" y1="5.828" x2="188.286" y2="13.371" gradientUnits="userSpaceOnUse"><stop stop-color="#FF455B"/><stop offset="1" stop-color="#FF7245"/></linearGradient><linearGradient id="paint4_linear" x1="3.534" y1="16" x2="8.868" y2="25.238" gradientUnits="userSpaceOnUse"><stop stop-color="#FF455B"/><stop offset="1" stop-color="#FF7245"/></linearGradient></defs></svg>