<svg fill="none" xmlns="http://www.w3.org/2000/svg" viewBox="0 0 125 79"><g opacity=".5" fill="#fff"><path d="M77.192 38.885a3.66 3.66 0 0 0-3.654 3.655c0 .783.248 1.508.669 2.104l-5.223 5.55a3.64 3.64 0 0 0-4.401.428l-4.311-3.089c.204-.456.319-.96.319-1.49a3.66 3.66 0 0 0-3.655-3.655 3.659 3.659 0 0 0-3.655 3.655c0 .67.182 1.298.498 1.839l-4.79 4.28a3.635 3.635 0 0 0-2.182-.724 3.66 3.66 0 0 0-3.655 3.655 3.66 3.66 0 0 0 3.655 3.655 3.659 3.659 0 0 0 3.655-3.655c0-.67-.182-1.298-.498-1.839l4.79-4.28c.61.454 1.365.724 2.182.724.957 0 1.83-.37 2.481-.975l4.311 3.09c-.204.455-.319.959-.319 1.49a3.66 3.66 0 0 0 3.655 3.654 3.659 3.659 0 0 0 3.655-3.655c0-.783-.248-1.508-.67-2.104l5.224-5.55a3.633 3.633 0 0 0 1.92.547 3.66 3.66 0 0 0 3.654-3.655 3.66 3.66 0 0 0-3.654-3.655ZM46.807 57.283a2.193 2.193 0 0 1-2.19-2.19c0-1.208.983-2.19 2.19-2.19 1.208 0 2.19.982 2.19 2.19s-.982 2.19-2.19 2.19Zm10.129-9.05a2.193 2.193 0 0 1-2.19-2.19c0-1.208.982-2.19 2.19-2.19 1.207 0 2.19.982 2.19 2.19 0 1.165-.982 2.19-2.19 2.19Zm10.128 7.26a2.193 2.193 0 0 1-2.19-2.19c0-1.208.983-2.19 2.19-2.19 1.208 0 2.19.982 2.19 2.19 0 1.207-.982 2.19-2.19 2.19ZM77.193 44.73a2.193 2.193 0 0 1-2.19-2.19c0-1.208.982-2.19 2.19-2.19 1.207 0 2.19.982 2.19 2.19s-.983 2.19-2.19 2.19Z"/><path d="M83.572 28.438h-4.324a.732.732 0 1 0 0 1.465h4.323c.472 0 .856.383.856.855v2.3a.856.856 0 0 1-.856.855H48.096a.745.745 0 0 0-.732.733c0 .393.34.732.732.732H82.84v28.107H41.161V35.378h4.005a.75.75 0 0 0 .732-.733.743.743 0 0 0-.733-.732h-4.737a.856.856 0 0 1-.855-.855v-2.3c0-.472.384-.855.855-.855h35.89a.732.732 0 1 0 0-1.465H65.483v-.955A3.487 3.487 0 0 0 62 24a3.487 3.487 0 0 0-3.483 3.483v.955H40.428c-1.28 0-2.32 1.04-2.32 2.32v2.3c0 1.023.666 1.894 1.588 2.2v28.96c0 .404.328.732.732.732h20.84v2.781a3.182 3.182 0 0 0-2.446 3.092A3.181 3.181 0 0 0 62 74a3.181 3.181 0 0 0 3.177-3.177c0-1.5-1.045-2.76-2.445-3.092V64.95h20.84a.732.732 0 0 0 .732-.733V35.26a2.324 2.324 0 0 0 1.588-2.201v-2.3c0-1.28-1.041-2.32-2.32-2.32ZM62 25.465a2.02 2.02 0 0 1 2.018 2.018v.955h-4.036v-.955A2.02 2.02 0 0 1 62 25.465Zm1.712 45.358c0 .944-.768 1.712-1.712 1.712a1.715 1.715 0 0 1-1.713-1.712c0-.924.736-1.677 1.652-1.71a.764.764 0 0 0 .122 0 1.713 1.713 0 0 1 1.651 1.71Z"/></g><path fill-rule="evenodd" clip-rule="evenodd" d="m10.614 35.397 3.886-14.5L0 24.784l10.614 10.614Zm-.975-3.64 2.196-8.195-8.195 2.196 6 6Z" fill="url(#a)"/><path fill-rule="evenodd" clip-rule="evenodd" d="m110.863 22.558 1.309 14.955 12.296-8.61-13.605-6.345Zm2.162 3.087.739 8.452 6.95-4.866-7.689-3.586Z" fill="url(#b)"/><path d="m68.877 0 3.465 6h-6.929l3.464-6Z" fill="url(#c)"/><path d="m121.363 62.828-1.793 6.693-4.899-4.9 6.692-1.793Z" fill="url(#d)"/><path d="m19.534 69.193 6 3.464-6 3.464v-6.928Z" fill="url(#e)"/><defs><linearGradient id="a" x1="10.614" y1="35.397" x2="6.128" y2="18.655" gradientUnits="userSpaceOnUse"><stop stop-color="#FF455B"/><stop offset="1" stop-color="#FF7245"/></linearGradient><linearGradient id="b" x1="110.863" y1="22.558" x2="120.805" y2="36.757" gradientUnits="userSpaceOnUse"><stop stop-color="#FF455B"/><stop offset="1" stop-color="#FF7245"/></linearGradient><linearGradient id="c" x1="68.877" y1="0" x2="68.877" y2="10.667" gradientUnits="userSpaceOnUse"><stop stop-color="#FF455B"/><stop offset="1" stop-color="#FF7245"/></linearGradient><linearGradient id="d" x1="121.363" y1="62.828" x2="113.82" y2="70.371" gradientUnits="userSpaceOnUse"><stop stop-color="#FF455B"/><stop offset="1" stop-color="#FF7245"/></linearGradient><linearGradient id="e" x1="19.534" y1="69.193" x2="24.868" y2="78.43" gradientUnits="userSpaceOnUse"><stop stop-color="#FF455B"/><stop offset="1" stop-color="#FF7245"/></linearGradient></defs></svg>