<svg fill="none" xmlns="http://www.w3.org/2000/svg" viewBox="0 0 125 79"><g opacity=".5" fill="#fff"><path d="M70 48.023a.977.977 0 1 0 0-1.953.977.977 0 0 0 0 1.953ZM70.168 51.231a.977.977 0 0 0-1.11.823c-.266 1.803-1.79 3.297-4.074 3.999-2.442.75-5.832.498-7.9-1.753a.977.977 0 0 0-1.439 1.32c1.197 1.304 2.823 2.193 4.702 2.57.664.133 1.352.2 2.045.2 1.07 0 2.15-.159 3.165-.47 3.022-.928 5.054-3.014 5.434-5.58a.977.977 0 0 0-.823-1.109Z"/><path d="M83.74 42.595c-1.774-2.058-4.224-3.392-7.173-3.928 2.824-1.905 5.259-3.801 6.995-5.456 2.647-2.522 3.535-4.295 2.794-5.578-.825-1.43-3.206-1.42-7.494.031-3.622 1.226-8.135 3.354-12.707 5.994-.79.456-1.573.923-2.338 1.393-.568-1.603-.193-3.434 1.06-5.022.938-1.19 1.147-2.7.546-3.943-.63-1.303-2.012-2.082-3.7-2.086h-.046c-5.958 0-11.785 2.35-16.408 6.619-4.63 4.274-7.463 9.931-7.98 15.93-.622 7.225 1.688 14.093 6.502 19.34C48.521 71.044 55.227 74 62.19 74c3.748 0 7.266-.686 10.457-2.038a23.533 23.533 0 0 0 7.702-5.25 23.196 23.196 0 0 0 4.764-7.127c1.074-2.517 1.66-5.186 1.697-7.716.053-3.68-1.008-6.886-3.068-9.274ZM63.932 37.28a95.88 95.88 0 0 1 3.2-1.93c4.227-2.441 8.437-4.451 11.853-5.66 3.76-1.332 5.3-1.246 5.66-1.074-.032.228-.314 1.239-2.782 3.511-2.06 1.898-5.07 4.13-8.473 6.284a95.641 95.641 0 0 1-7.98 4.528 14.692 14.692 0 0 0-2.77-4.828c.424-.278.855-.556 1.292-.83Zm-.291 6.525c-2.758 1.308-5.288 2.305-7.309 2.883a4.892 4.892 0 0 0-1.474-2.598c1.513-1.46 3.642-3.15 6.15-4.881a12.74 12.74 0 0 1 2.633 4.596Zm21.216 8.036c-.14 9.718-8.845 20.206-22.667 20.206-6.416 0-12.597-2.726-16.958-7.478-4.441-4.84-6.57-11.18-5.996-17.852.986-11.45 11.054-20.764 22.442-20.764h.044c.934.002 1.643.36 1.944.983.277.573.156 1.276-.322 1.883-1.76 2.232-2.202 4.976-1.207 7.29-.524.337-1.038.676-1.536 1.012l-.006.005c-3.106 2.095-5.728 4.18-7.473 5.933a4.857 4.857 0 0 0-4.013.393c-2.029 1.172-4.693 6.634-5.206 7.717a.976.976 0 0 0 .803 1.391c.54.044 2.073.155 3.779.155 2.07 0 4.395-.163 5.507-.806a4.871 4.871 0 0 0 2.33-3.193c2.394-.629 5.523-1.859 8.912-3.51a93.754 93.754 0 0 0 5.804-3.09c.991-.573 1.97-1.163 2.922-1.757l.017.001c8.14.233 10.957 6.084 10.88 11.481Zm-30.381-3.977a2.926 2.926 0 0 1-1.46 2.354c-.924.533-4.096.605-6.702.486 1.2-2.315 2.848-5.026 3.772-5.56a2.92 2.92 0 0 1 2.823-.06c.493.257.9.648 1.179 1.131.29.503.424 1.074.388 1.65Z"/><path d="M54.375 30.04a3.91 3.91 0 0 0-3.906 3.905 3.91 3.91 0 0 0 3.906 3.907 3.91 3.91 0 0 0 3.907-3.907 3.91 3.91 0 0 0-3.907-3.906Zm0 5.858a1.955 1.955 0 0 1-1.953-1.953c0-1.077.876-1.953 1.953-1.953s1.953.876 1.953 1.953a1.955 1.955 0 0 1-1.953 1.953ZM49.492 56.28a3.91 3.91 0 0 0-3.906 3.907 3.91 3.91 0 0 0 3.906 3.906 3.91 3.91 0 0 0 3.907-3.907 3.91 3.91 0 0 0-3.907-3.906Zm0 5.86a1.955 1.955 0 0 1-1.953-1.953c0-1.077.877-1.954 1.953-1.954 1.077 0 1.954.877 1.954 1.954a1.955 1.955 0 0 1-1.954 1.953ZM59.258 62.14a3.91 3.91 0 0 0-3.906 3.906 3.91 3.91 0 0 0 3.906 3.906 3.91 3.91 0 0 0 3.906-3.906 3.91 3.91 0 0 0-3.906-3.906Zm0 5.859a1.955 1.955 0 0 1-1.953-1.953c0-1.077.876-1.953 1.953-1.953s1.953.876 1.953 1.953a1.955 1.955 0 0 1-1.953 1.953ZM70.977 60.187a3.91 3.91 0 0 0-3.906 3.906 3.91 3.91 0 0 0 3.906 3.906 3.91 3.91 0 0 0 3.906-3.906 3.91 3.91 0 0 0-3.906-3.907Zm0 5.859a1.955 1.955 0 0 1-1.953-1.953c0-1.077.876-1.953 1.953-1.953s1.953.876 1.953 1.953a1.955 1.955 0 0 1-1.953 1.953ZM78.79 50.42a3.91 3.91 0 0 0-3.907 3.907 3.91 3.91 0 0 0 3.906 3.906 3.91 3.91 0 0 0 3.907-3.906 3.91 3.91 0 0 0-3.907-3.906Zm0 5.86a1.955 1.955 0 0 1-1.954-1.953c0-1.077.876-1.953 1.953-1.953s1.953.876 1.953 1.953a1.955 1.955 0 0 1-1.953 1.953Z"/></g><path fill-rule="evenodd" clip-rule="evenodd" d="m10.614 35.397 3.886-14.5L0 24.784l10.614 10.614Zm-.975-3.64 2.196-8.195-8.195 2.196 6 6Z" fill="url(#a)"/><path fill-rule="evenodd" clip-rule="evenodd" d="m110.863 22.558 1.309 14.955 12.296-8.61-13.605-6.345Zm2.162 3.087.739 8.452 6.95-4.866-7.689-3.586Z" fill="url(#b)"/><path d="m68.877 0 3.465 6h-6.929l3.464-6Z" fill="url(#c)"/><path d="m121.363 62.828-1.793 6.693-4.899-4.9 6.692-1.793Z" fill="url(#d)"/><path d="m19.534 69.193 6 3.464-6 3.464v-6.928Z" fill="url(#e)"/><defs><linearGradient id="a" x1="10.614" y1="35.397" x2="6.128" y2="18.655" gradientUnits="userSpaceOnUse"><stop stop-color="#FF455B"/><stop offset="1" stop-color="#FF7245"/></linearGradient><linearGradient id="b" x1="110.863" y1="22.558" x2="120.805" y2="36.757" gradientUnits="userSpaceOnUse"><stop stop-color="#FF455B"/><stop offset="1" stop-color="#FF7245"/></linearGradient><linearGradient id="c" x1="68.877" y1="0" x2="68.877" y2="10.667" gradientUnits="userSpaceOnUse"><stop stop-color="#FF455B"/><stop offset="1" stop-color="#FF7245"/></linearGradient><linearGradient id="d" x1="121.363" y1="62.828" x2="113.82" y2="70.371" gradientUnits="userSpaceOnUse"><stop stop-color="#FF455B"/><stop offset="1" stop-color="#FF7245"/></linearGradient><linearGradient id="e" x1="19.534" y1="69.193" x2="24.868" y2="78.43" gradientUnits="userSpaceOnUse"><stop stop-color="#FF455B"/><stop offset="1" stop-color="#FF7245"/></linearGradient></defs></svg>