<svg fill="none" xmlns="http://www.w3.org/2000/svg" viewBox="0 0 125 79"><g opacity=".5" fill="#fff"><path d="M58.543 67.179V54.391a.798.798 0 0 0-.798-.798h-5.32a.798.798 0 1 0 0 1.596h4.522v11.99a3.463 3.463 0 0 0-2.66 3.364A3.461 3.461 0 0 0 57.745 74a3.461 3.461 0 0 0 3.457-3.457 3.463 3.463 0 0 0-2.66-3.364Zm-.798 5.225a1.864 1.864 0 0 1-1.862-1.861c0-1.027.835-1.862 1.862-1.862 1.026 0 1.861.835 1.861 1.862a1.864 1.864 0 0 1-1.861 1.861ZM67.053 67.179V54.391a.798.798 0 0 0-.798-.798h-5.319a.798.798 0 1 0 0 1.596h4.521v11.99a3.463 3.463 0 0 0-2.66 3.364A3.461 3.461 0 0 0 66.256 74a3.461 3.461 0 0 0 3.458-3.457 3.463 3.463 0 0 0-2.66-3.364Zm-.798 5.225a1.864 1.864 0 0 1-1.861-1.861c0-1.027.835-1.862 1.861-1.862 1.027 0 1.862.835 1.862 1.862a1.864 1.864 0 0 1-1.862 1.861ZM80.617 61.766a3.463 3.463 0 0 0-3.364 2.66h-1.69V54.39a.798.798 0 0 0-.797-.798h-5.32a.798.798 0 1 0 0 1.596h4.522v10.034c0 .441.357.798.798.798h2.487a3.463 3.463 0 0 0 3.364 2.66 3.461 3.461 0 0 0 3.457-3.458 3.461 3.461 0 0 0-3.457-3.457Zm0 5.319a1.864 1.864 0 0 1-1.862-1.862c0-1.026.836-1.861 1.862-1.861 1.026 0 1.862.835 1.862 1.861a1.864 1.864 0 0 1-1.862 1.862Z"/><path d="M85.1 41.187a8.66 8.66 0 0 0-4.16-2.829 15.003 15.003 0 0 0-4.452-9.98A15.01 15.01 0 0 0 65.854 24a15.119 15.119 0 0 0-12.88 7.211 6.853 6.853 0 0 0-2.067-.316c-3.26 0-6.062 2.3-6.738 5.437A9.604 9.604 0 0 0 37 45.606c0 5.284 4.298 9.583 9.582 9.583h1.854v9.236h-1.69a3.463 3.463 0 0 0-3.363-2.659 3.461 3.461 0 0 0-3.458 3.457 3.461 3.461 0 0 0 3.458 3.458 3.463 3.463 0 0 0 3.363-2.66h2.488c.44 0 .798-.357.798-.798V54.391a.798.798 0 0 0-.798-.798h-2.652c-4.404 0-7.986-3.583-7.986-7.987 0-3.8 2.701-7.094 6.424-7.832a.798.798 0 0 0 .635-.68 5.308 5.308 0 0 1 5.252-4.603c.73 0 1.436.146 2.102.434a.798.798 0 0 0 1.015-.346 13.524 13.524 0 0 1 11.83-6.983c7.381 0 13.44 6.004 13.507 13.384a.798.798 0 0 0 .618.77 6.977 6.977 0 0 1 5.425 6.83 7.02 7.02 0 0 1-7.012 7.013h-.435a.798.798 0 1 0 0 1.596h.434c4.747 0 8.609-3.862 8.609-8.609a8.626 8.626 0 0 0-1.9-5.393ZM43.383 67.085a1.864 1.864 0 0 1-1.862-1.862c0-1.026.835-1.861 1.862-1.861 1.026 0 1.862.835 1.862 1.861a1.864 1.864 0 0 1-1.862 1.862Z"/><path d="M75.903 39.81h.008a.798.798 0 0 0 .79-.806c-.011-1.314-.26-2.6-.737-3.822a.798.798 0 0 0-1.486.58 9.144 9.144 0 0 1 .628 3.257c.004.438.36.79.797.79ZM72.987 33.23a.796.796 0 0 0 1.123.106.798.798 0 0 0 .107-1.123 10.823 10.823 0 0 0-8.363-3.958.798.798 0 1 0 0 1.596c2.76 0 5.36 1.231 7.133 3.378Z"/></g><path fill-rule="evenodd" clip-rule="evenodd" d="m10.614 35.397 3.886-14.5L0 24.784l10.614 10.614Zm-.975-3.64 2.196-8.195-8.195 2.196 6 6Z" fill="url(#a)"/><path fill-rule="evenodd" clip-rule="evenodd" d="m110.863 22.558 1.309 14.955 12.296-8.61-13.605-6.345Zm2.162 3.087.739 8.452 6.95-4.866-7.689-3.586Z" fill="url(#b)"/><path d="m68.877 0 3.465 6h-6.929l3.464-6Z" fill="url(#c)"/><path d="m121.363 62.828-1.793 6.693-4.899-4.9 6.692-1.793Z" fill="url(#d)"/><path d="m19.534 69.193 6 3.464-6 3.464v-6.928Z" fill="url(#e)"/><defs><linearGradient id="a" x1="10.614" y1="35.397" x2="6.128" y2="18.655" gradientUnits="userSpaceOnUse"><stop stop-color="#FF455B"/><stop offset="1" stop-color="#FF7245"/></linearGradient><linearGradient id="b" x1="110.863" y1="22.558" x2="120.805" y2="36.757" gradientUnits="userSpaceOnUse"><stop stop-color="#FF455B"/><stop offset="1" stop-color="#FF7245"/></linearGradient><linearGradient id="c" x1="68.877" y1="0" x2="68.877" y2="10.667" gradientUnits="userSpaceOnUse"><stop stop-color="#FF455B"/><stop offset="1" stop-color="#FF7245"/></linearGradient><linearGradient id="d" x1="121.363" y1="62.828" x2="113.82" y2="70.371" gradientUnits="userSpaceOnUse"><stop stop-color="#FF455B"/><stop offset="1" stop-color="#FF7245"/></linearGradient><linearGradient id="e" x1="19.534" y1="69.193" x2="24.868" y2="78.43" gradientUnits="userSpaceOnUse"><stop stop-color="#FF455B"/><stop offset="1" stop-color="#FF7245"/></linearGradient></defs></svg>