<?xml version="1.0" encoding="UTF-8" standalone="no"?>
<svg
   xmlns:dc="http://purl.org/dc/elements/1.1/"
   xmlns:cc="http://creativecommons.org/ns#"
   xmlns:rdf="http://www.w3.org/1999/02/22-rdf-syntax-ns#"
   xmlns:svg="http://www.w3.org/2000/svg"
   xmlns="http://www.w3.org/2000/svg"
   xmlns:sodipodi="http://sodipodi.sourceforge.net/DTD/sodipodi-0.dtd"
   xmlns:inkscape="http://www.inkscape.org/namespaces/inkscape"
   id="svg8"
   version="1.1"
   viewBox="0 0 210 297"
   height="297mm"
   width="210mm"
   sodipodi:docname="logo.svg"
   inkscape:export-filename="/Users/erickaskim/Documents/ErickAskim.com/Img/logo.png"
   inkscape:export-xdpi="96.268074"
   inkscape:export-ydpi="96.268074"
   inkscape:version="1.0.2 (e86c8708, 2021-01-15)">
  <defs
     id="defs2" />
  <sodipodi:namedview
     id="base"
     pagecolor="#ffffff"
     bordercolor="#666666"
     borderopacity="1.0"
     inkscape:pageopacity="0.0"
     inkscape:pageshadow="2"
     inkscape:zoom="0.86254167"
     inkscape:cx="391.49995"
     inkscape:cy="178.50204"
     inkscape:document-units="mm"
     inkscape:current-layer="layer2"
     inkscape:document-rotation="0"
     showgrid="false"
     inkscape:window-width="1252"
     inkscape:window-height="855"
     inkscape:window-x="0"
     inkscape:window-y="23"
     inkscape:window-maximized="0" />
  <metadata
     id="metadata5">
    <rdf:RDF>
      <cc:Work
         rdf:about="">
        <dc:format>image/svg+xml</dc:format>
        <dc:type
           rdf:resource="http://purl.org/dc/dcmitype/StillImage" />
      </cc:Work>
    </rdf:RDF>
  </metadata>
  <g
     inkscape:label="Layer 1"
     inkscape:groupmode="layer"
     id="layer1"
     style="display:inline;opacity:0.938">
    <path
       id="path10"
       style="opacity:1;fill:#003b6f;fill-opacity:1;fill-rule:evenodd;stroke-width:0.506606"
       d="M 63.625965,0.04129886 A 104.99971,61.466884 0 0 0 0,56.535499 104.99971,61.466884 0 0 0 61.795728,112.55748 69.786389,70.737194 0 0 1 35.213641,57.006662 69.786389,70.737194 0 0 1 63.625965,0.04129886 Z m 82.746145,0 A 69.786389,70.737194 0 0 1 174.78637,57.006662 69.786389,70.737194 0 0 1 148.20524,112.55641 104.99971,61.466884 0 0 0 210,56.535499 104.99971,61.466884 0 0 0 146.37211,0.04129886 Z" />
  </g>
  <g
     inkscape:groupmode="layer"
     id="layer2"
     inkscape:label="Layer 2"
     style="display:inline">
    <ellipse
       style="fill:#720000;fill-opacity:1;stroke-width:0.21974"
       id="path150"
       cx="103.5718"
       cy="118.04629"
       rx="6.5625911"
       ry="5.9312868" />
    <ellipse
       style="fill:#003b6f;fill-opacity:1;stroke-width:0.55906"
       id="path154"
       cx="106.63984"
       cy="54.257931"
       rx="56.058678"
       ry="54.294067"
       transform="matrix(0.99956971,0.02933261,-0.02966034,0.99956004,0,0)" />
  </g>
</svg>
